<svg width="16" height="13" viewBox="0 0 16 13" fill="none" xmlns="http://www.w3.org/2000/svg">
<path fill-rule="evenodd" clip-rule="evenodd" d="M15.379 6.18798C15.4435 6.27009 15.4839 6.3604 15.4919 6.46714C15.4919 6.47536 15.5 6.48357 15.5 6.49999V6.5082V6.51641C15.5 6.52463 15.5 6.52463 15.5 6.53284C15.4919 6.66421 15.4436 6.77916 15.3629 6.86948C15.3548 6.87769 15.3629 6.8859 15.3548 6.89411C15.3468 6.90232 15.3387 6.90232 15.3306 6.90232C15.3225 6.91053 15.3145 6.91053 15.3064 6.91053L9.43547 12.346C9.23388 12.5513 8.90321 12.5513 8.69353 12.346C8.49194 12.1408 8.49194 11.8041 8.69353 11.5907L13.6048 7.04191H1.03224C0.733875 7.04191 0.5 6.79559 0.5 6.5C0.5 6.1962 0.741905 5.95809 1.03224 5.95809H13.6048L8.69353 1.40934C8.49194 1.20407 8.49194 0.867425 8.69353 0.653948C8.89515 0.448684 9.2258 0.448684 9.43547 0.653948L15.2742 6.05662C15.2823 6.06483 15.2903 6.07304 15.2984 6.08125C15.3145 6.09767 15.3387 6.08946 15.3548 6.10588C15.3709 6.13051 15.3629 6.16335 15.379 6.18798Z" fill="#E81132" stroke="#E81132" stroke-width="0.5"/>
</svg>
