<svg width="17" height="14" viewBox="0 0 17 14" fill="none" xmlns="http://www.w3.org/2000/svg">
<path fill-rule="evenodd" clip-rule="evenodd" d="M15.879 6.68798C15.9435 6.77009 15.9839 6.8604 15.9919 6.96714C15.9919 6.97536 16 6.98357 16 6.99999V7.0082V7.01641C16 7.02463 16 7.02463 16 7.03284C15.9919 7.16421 15.9436 7.27916 15.8629 7.36948C15.8548 7.37769 15.8629 7.3859 15.8548 7.39411C15.8468 7.40232 15.8387 7.40232 15.8306 7.40232C15.8225 7.41053 15.8145 7.41053 15.8064 7.41053L9.93547 12.846C9.73388 13.0513 9.40321 13.0513 9.19353 12.846C8.99194 12.6408 8.99194 12.3041 9.19353 12.0907L14.1048 7.54191H1.53224C1.23388 7.54191 1 7.29559 1 7C1 6.6962 1.24191 6.45809 1.53224 6.45809H14.1048L9.19353 1.90934C8.99194 1.70407 8.99194 1.36742 9.19353 1.15395C9.39515 0.948684 9.7258 0.948684 9.93547 1.15395L15.7742 6.55662C15.7823 6.56483 15.7903 6.57304 15.7984 6.58125C15.8145 6.59767 15.8387 6.58946 15.8548 6.60588C15.8709 6.63051 15.8629 6.66335 15.879 6.68798Z" fill="#E81132" stroke="#E81132" stroke-width="0.5"/>
</svg>
