<svg width="49" height="48" viewBox="0 0 49 48" fill="none" xmlns="http://www.w3.org/2000/svg">
<path fill-rule="evenodd" clip-rule="evenodd" d="M48.1706 11.5048L27.2326 32.3303C27.21 32.3753 27.21 32.4203 27.1876 32.4654C26.8949 32.758 26.4897 32.8931 26.1069 32.8931C25.7017 32.9157 25.3189 32.7806 25.0038 32.4879C24.9587 32.4429 24.9812 32.3753 24.9362 32.3303L16.0882 23.5273C15.5028 22.9419 15.5028 22.0188 16.0882 21.4335C16.6737 20.8481 17.6192 20.8481 18.1819 21.4335L26.1069 29.3134L46.0994 9.43349C46.6848 8.8481 47.6303 8.8481 48.2158 9.43349C48.756 9.99638 48.756 10.9194 48.1706 11.5048V11.5048ZM24.621 2.99443C13.0262 2.99443 3.63785 12.4053 3.63785 24.0001C3.63785 35.5948 13.0262 45.0057 24.621 45.0057C36.2157 45.0057 45.6265 35.5948 45.6265 24.0001C45.6265 23.5498 45.514 23.122 45.4915 22.6717L48.2607 19.9925C48.4859 21.2984 48.6209 22.6267 48.6209 24C48.6209 37.2608 37.8817 48 24.6435 48C11.4052 48 0.666016 37.2608 0.666016 24C0.666016 10.7392 11.4052 0 24.6435 0C30.7223 0 36.2608 2.27393 40.4934 6.01126L38.287 8.15009C34.5721 4.97564 29.8442 2.99441 24.6209 2.99441L24.621 2.99443Z" fill="#240B14"/>
</svg>
