<svg width="64" height="64" viewBox="0 0 64 64" fill="none" xmlns="http://www.w3.org/2000/svg">
<g opacity="0.1">
<path fill-rule="evenodd" clip-rule="evenodd" d="M63.3395 15.3397L35.4222 43.107C35.392 43.1671 35.392 43.2271 35.3621 43.2872C34.9718 43.6774 34.4315 43.8575 33.9212 43.8575C33.381 43.8876 32.8705 43.7074 32.4503 43.3172C32.3902 43.2571 32.4202 43.1671 32.3602 43.1071L20.5629 31.3697C19.7824 30.5892 19.7824 29.3585 20.5629 28.578C21.3435 27.7975 22.6042 27.7975 23.3546 28.578L33.9212 39.0845L60.5778 12.578C61.3584 11.7975 62.619 11.7975 63.3997 12.578C64.12 13.3285 64.12 14.5593 63.3395 15.3397V15.3397ZM31.9399 3.99258C16.4803 3.99258 3.96245 16.5404 3.96245 32.0001C3.96245 47.4597 16.4803 60.0076 31.9399 60.0076C47.3996 60.0076 59.9473 47.4597 59.9473 32.0001C59.9473 31.3997 59.7973 30.8293 59.7673 30.229L63.4596 26.6567C63.7599 28.3978 63.9399 30.1689 63.9399 32C63.9399 49.6811 49.621 64 31.9699 64C14.3189 64 0 49.6811 0 32C0 14.319 14.3189 0 31.9699 0C40.0751 0 47.4597 3.0319 53.1032 8.01501L50.1613 10.8668C45.2081 6.63419 38.9042 3.99254 31.9399 3.99254L31.9399 3.99258Z" fill="white"/>
</g>
</svg>
