<svg width="32" height="32" viewBox="0 0 32 32" fill="none" xmlns="http://www.w3.org/2000/svg">
<path fill-rule="evenodd" clip-rule="evenodd" d="M31.6698 7.66985L17.7111 21.5535C17.696 21.5835 17.696 21.6135 17.6811 21.6436C17.4859 21.8387 17.2158 21.9288 16.9606 21.9288C16.6905 21.9438 16.4353 21.8537 16.2252 21.6586C16.1951 21.6286 16.2101 21.5835 16.1801 21.5535L10.2814 15.6849C9.89119 15.2946 9.89119 14.6792 10.2814 14.289C10.6718 13.8987 11.3021 13.8987 11.6773 14.289L16.9606 19.5423L30.2889 6.28899C30.6792 5.89873 31.3095 5.89873 31.6998 6.28899C32.06 6.66425 32.06 7.27963 31.6698 7.66987V7.66985ZM15.97 1.99629C8.24015 1.99629 1.98122 8.2702 1.98122 16C1.98122 23.7299 8.24015 30.0038 15.97 30.0038C23.6998 30.0038 29.9737 23.7299 29.9737 16C29.9737 15.6998 29.8987 15.4147 29.8837 15.1145L31.7298 13.3284C31.8799 14.1989 31.9699 15.0844 31.9699 16C31.9699 24.8405 24.8105 32 15.985 32C7.15947 32 0 24.8405 0 16C0 7.15948 7.15945 0 15.985 0C20.0376 0 23.7298 1.51595 26.5516 4.00751L25.0807 5.43339C22.6041 3.31709 19.4521 1.99627 15.97 1.99627L15.97 1.99629Z" fill="#240B14"/>
</svg>
