<svg width="64" height="64" viewBox="0 0 64 64" fill="none" xmlns="http://www.w3.org/2000/svg">
<g opacity="0.1">
<path fill-rule="evenodd" clip-rule="evenodd" d="M51.998 24.0037H43.9867V39.9962H51.998C58.6292 39.9962 64 45.367 64 51.9981C64 58.6292 58.6292 64 51.998 64C45.367 64 39.9962 58.6292 39.9962 51.9981V43.9869H24.0038V51.9981C24.0038 58.6292 18.633 64 12.0018 64C5.37058 64 0 58.6292 0 51.9981C0 45.3671 5.37058 39.9962 12.0018 39.9962H20.0128V24.0037H12.0018C5.37058 24.0037 0 18.6329 0 12.0019C0 5.37078 5.37058 0 12.0018 0C18.633 0 24.0038 5.37078 24.0038 12.0019V20.0131H39.9962V12.0019C39.9962 5.37078 45.367 0 51.998 0C58.6292 0 64 5.37078 64 12.0019C63.9696 18.6328 58.5991 24.0037 51.998 24.0037ZM43.9868 51.9967C43.9868 56.4074 47.5572 60.008 51.9978 60.008C56.4084 60.008 60.009 56.4374 60.009 51.9967C60.009 47.586 56.4385 43.9855 51.9978 43.9855H43.9868V51.9967ZM19.9829 12.0035C19.9829 7.59282 16.4122 3.99225 11.9717 3.99225C7.56127 3.99225 3.96067 7.56284 3.96067 12.0035C3.96067 16.4142 7.53115 20.0148 11.9717 20.0148H19.9829V12.0035ZM19.9829 43.9855H11.9717C7.56127 43.9855 3.96067 47.5561 3.96067 51.9967C3.96067 56.4074 7.53115 60.008 11.9717 60.008C16.3823 60.008 19.9829 56.4374 19.9829 51.9967V43.9855ZM39.9962 24.0037H24.0038V39.9962H39.9962V24.0037ZM51.998 4.0192C47.5874 4.0192 43.9868 7.58975 43.9868 12.0304V20.0417H51.998C56.4088 20.0417 60.0094 16.4711 60.0094 12.0304C59.9791 7.58972 56.4088 4.0192 51.998 4.0192Z" fill="white"/>
</g>
</svg>
