<svg width="32" height="32" viewBox="0 0 32 32" fill="none" xmlns="http://www.w3.org/2000/svg">
<path fill-rule="evenodd" clip-rule="evenodd" d="M25.999 12.0018H21.9934V19.9981H25.999C29.3146 19.9981 32 22.6835 32 25.9991C32 29.3146 29.3146 32 25.999 32C22.6835 32 19.9981 29.3146 19.9981 25.9991V21.9934H12.0019V25.9991C12.0019 29.3146 9.31651 32 6.0009 32C2.68529 32 0 29.3146 0 25.9991C0 22.6835 2.68529 19.9981 6.0009 19.9981H10.0064V12.0018H6.0009C2.68529 12.0018 0 9.31646 0 6.00095C0 2.68539 2.68529 0 6.0009 0C9.31651 0 12.0019 2.68539 12.0019 6.00095V10.0066H19.9981V6.00095C19.9981 2.68539 22.6835 0 25.999 0C29.3146 0 32 2.68539 32 6.00095C31.9848 9.31642 29.2995 12.0018 25.999 12.0018ZM21.9934 25.9984C21.9934 28.2037 23.7786 30.004 25.9989 30.004C28.2042 30.004 30.0045 28.2187 30.0045 25.9984C30.0045 23.793 28.2193 21.9927 25.9989 21.9927H21.9934V25.9984ZM9.99145 6.00177C9.99145 3.79641 8.20611 1.99612 5.98584 1.99612C3.78063 1.99612 1.98033 3.78142 1.98033 6.00177C1.98033 8.20708 3.76557 10.0074 5.98584 10.0074H9.99145V6.00177ZM9.99145 21.9927H5.98584C3.78063 21.9927 1.98033 23.778 1.98033 25.9984C1.98033 28.2037 3.76557 30.004 5.98584 30.004C8.19115 30.004 9.99145 28.2187 9.99145 25.9984V21.9927ZM19.9981 12.0018H12.0019V19.9981H19.9981V12.0018ZM25.999 2.0096C23.7937 2.0096 21.9934 3.79488 21.9934 6.01521V10.0208H25.999C28.2044 10.0208 30.0047 8.23555 30.0047 6.01521C29.9896 3.79486 28.2044 2.0096 25.999 2.0096Z" fill="#240B14"/>
</svg>
