<svg width="49" height="48" viewBox="0 0 49 48" fill="none" xmlns="http://www.w3.org/2000/svg">
<path fill-rule="evenodd" clip-rule="evenodd" d="M39.3325 18.0028H33.324V29.9972H39.3325C44.3059 29.9972 48.334 34.0253 48.334 38.9986C48.334 43.9719 44.3059 48 39.3325 48C34.3592 48 30.3311 43.9719 30.3311 38.9986V32.9902H18.3368V38.9986C18.3368 43.9719 14.3087 48 9.33533 48C4.36192 48 0.333984 43.9719 0.333984 38.9986C0.333984 34.0253 4.36192 29.9972 9.33533 29.9972H15.3436V18.0028H9.33533C4.36192 18.0028 0.333984 13.9747 0.333984 9.00142C0.333984 4.02809 4.36192 0 9.33533 0C14.3087 0 18.3368 4.02809 18.3368 9.00142V15.0098H30.3311V9.00142C30.3311 4.02809 34.3592 0 39.3325 0C44.3059 0 48.334 4.02809 48.334 9.00142C48.3112 13.9746 44.2833 18.0028 39.3325 18.0028ZM33.3241 38.9975C33.3241 42.3056 36.0019 45.006 39.3323 45.006C42.6403 45.006 45.3407 42.3281 45.3407 38.9975C45.3407 35.6895 42.6629 32.9891 39.3323 32.9891H33.3241V38.9975ZM15.3212 9.00266C15.3212 5.69461 12.6431 2.99419 9.31275 2.99419C6.00493 2.99419 3.30448 5.67213 3.30448 9.00266C3.30448 12.3106 5.98235 15.0111 9.31275 15.0111H15.3212V9.00266ZM15.3212 32.9891H9.31275C6.00493 32.9891 3.30448 35.6671 3.30448 38.9975C3.30448 42.3056 5.98235 45.006 9.31275 45.006C12.6207 45.006 15.3212 42.3281 15.3212 38.9975V32.9891ZM30.3311 18.0028H18.3368V29.9972H30.3311V18.0028ZM39.3325 3.0144C36.0245 3.0144 33.3241 5.69232 33.3241 9.02282V15.0312H39.3325C42.6406 15.0312 45.3411 12.3533 45.3411 9.02282C45.3183 5.69229 42.6406 3.0144 39.3325 3.0144Z" fill="#240B14"/>
</svg>
