<svg width="49" height="48" viewBox="0 0 49 48" fill="none" xmlns="http://www.w3.org/2000/svg">
<path fill-rule="evenodd" clip-rule="evenodd" d="M39.3325 47.9991H30.3312H27.3382V36.0048H30.3312H34.8318C35.6645 36.0048 36.3396 35.3296 36.3396 34.4969V29.9963V27.0033H48.3339V29.9963V38.9977C48.3339 43.971 44.306 47.9991 39.3325 47.9991ZM45.3186 29.9972H39.3101V36.0057C39.3101 37.6709 37.9599 38.9986 36.3171 38.9986H30.3088V44.9846H39.3101C42.6181 44.9846 45.3186 42.3066 45.3186 38.9986V29.9972ZM36.317 18.0028V13.502C36.317 12.6695 35.6421 11.9944 34.8095 11.9944H30.3088H27.3158V0H30.3088H39.3101C44.2834 0 48.3116 4.02809 48.3116 9.00144V18.0028V20.9957H36.317V18.0028ZM39.3325 12.0159V18.0243H45.3408V9.02294C45.3408 5.71489 42.6631 3.01441 39.3325 3.01441H30.3312V9.02294H36.3396C37.9825 9.02286 39.3325 10.3506 39.3325 12.0159ZM9.3355 47.9991C4.36208 47.9991 0.333984 43.971 0.333984 38.9977V29.9963V27.0033H12.3284V29.9963V34.4969C12.3284 35.3296 13.0036 36.0048 13.8361 36.0048H18.3369H21.3298V47.9991H18.3369H9.3355ZM18.3369 38.9986H12.3284C10.6631 38.9986 9.3355 37.6484 9.3355 36.0057V29.9971H3.32707V38.9986C3.32707 42.3066 6.00494 44.9845 9.3355 44.9845H18.3369V38.9986ZM13.8361 12.0169C13.0035 12.0169 12.3284 12.6919 12.3284 13.5245V18.0253V21.0183H0.333984V18.0253V9.02392C0.333984 4.05066 4.36208 0.0224844 9.3355 0.0224844H18.3369H21.3298V12.0169H18.3369H13.8361ZM18.337 3.01441H9.33566C6.02768 3.01441 3.32723 5.69235 3.32723 9.02294V18.0243H9.33566V12.0159C9.33566 10.3507 10.6857 9.02294 12.3286 9.02294H18.337V3.01441Z" fill="#240B14"/>
</svg>
