<svg width="49" height="48" viewBox="0 0 49 48" fill="none" xmlns="http://www.w3.org/2000/svg">
<path fill-rule="evenodd" clip-rule="evenodd" d="M42.6576 48H6.67444C3.36647 48 0.666016 45.3221 0.666016 41.9916V6.00842C0.666016 2.7004 3.34388 0 6.67444 0H42.6576C45.9654 0 48.6659 2.67792 48.6659 6.00842V41.9916C48.6436 45.2995 45.9656 48 42.6576 48ZM45.6504 6.00738C45.6504 4.34212 44.3003 3.0144 42.6575 3.0144H6.6743C5.009 3.0144 3.68137 4.3646 3.68137 6.00738V41.9905C3.68137 43.6558 5.03144 44.9835 6.6743 44.9835H42.6575C44.3226 44.9835 45.6504 43.6333 45.6504 41.9905V6.00738ZM32.1484 36.0056C31.3159 36.0056 30.6408 35.3305 30.6408 34.4978V13.5021C30.6408 12.6695 31.3159 11.9943 32.1484 11.9943C32.981 11.9943 33.6561 12.6694 33.6561 13.5021V34.4978C33.6561 35.3305 32.981 36.0056 32.1484 36.0056ZM23.1698 32.9889C22.3371 32.9889 21.662 32.3138 21.662 31.4812V16.4939C21.662 15.6612 22.3371 14.9861 23.1698 14.9861C24.0022 14.9861 24.6773 15.6612 24.6773 16.4939V31.4812C24.6549 32.3363 23.9798 32.9889 23.1698 32.9889ZM14.1681 29.9972C13.3354 29.9972 12.6603 29.322 12.6603 28.4894V19.488C12.6603 18.6554 13.3355 17.9803 14.1681 17.9803C15.0007 17.9803 15.6758 18.6554 15.6758 19.488V28.4894C15.6532 29.322 15.0007 29.9972 14.1681 29.9972Z" fill="#240B14"/>
</svg>
