<svg width="64" height="64" viewBox="0 0 64 64" fill="none" xmlns="http://www.w3.org/2000/svg">
<g opacity="0.1">
<path fill-rule="evenodd" clip-rule="evenodd" d="M63.2124 25.501L48.2118 40.5317L53.8521 61.4423C53.912 61.6225 53.8821 61.8024 53.8821 61.9825C53.8821 62.0424 53.8821 62.0724 53.8821 62.1324C53.8521 62.6124 53.6421 63.0323 53.3121 63.3625C53.2821 63.3925 53.3121 63.4225 53.2821 63.4225C53.2821 63.4225 53.2519 63.4225 53.2519 63.4525C53.012 63.6924 52.7419 63.8725 52.3819 63.9625C52.2019 64.0224 52.022 63.9925 51.8419 63.9925C51.3318 63.9925 50.8818 63.8127 50.5218 63.4825C50.4918 63.4525 50.4318 63.4525 50.3719 63.4225L31.9213 50.312L13.4705 63.4225C13.4405 63.4526 13.3805 63.4526 13.3206 63.4825C12.9606 63.8125 12.5105 63.9625 12.0005 63.9925C11.8205 63.9925 11.6405 63.9925 11.4605 63.9625C11.1004 63.8725 10.8304 63.6624 10.5904 63.4525C10.5904 63.4525 10.5604 63.4525 10.5604 63.4225C10.5304 63.3924 10.5604 63.3625 10.5304 63.3625C10.2004 63.0325 10.0204 62.6124 9.96027 62.1324C9.96027 62.0724 9.96027 62.0424 9.96027 61.9825C9.96027 61.8024 9.93026 61.6225 9.99038 61.4423L15.6305 40.5317L0.630039 25.501C0.240011 25.141 0 24.631 0 24.061C0 24.031 0.0300101 24.0009 0.0300101 23.971C0.0601236 23.4909 0.240115 23.0409 0.540147 22.7109C0.570157 22.6809 0.540147 22.6509 0.570157 22.6208C0.600167 22.5908 0.630039 22.6208 0.660152 22.5908C0.990056 22.2909 1.44021 22.0807 1.92023 22.0509C1.95024 22.0509 1.98025 22.0208 2.01023 22.0208H18.8408L30.2113 0.990056C30.2413 0.960046 30.2713 0.930036 30.3013 0.90006C30.3613 0.780055 30.4812 0.689955 30.5713 0.600029C30.6613 0.510033 30.7513 0.420003 30.8713 0.329904C30.9014 0.299997 30.9312 0.270125 30.9612 0.240011C31.0214 0.210001 31.1114 0.210001 31.2013 0.150016C31.3213 0.0899957 31.4413 0.0600201 31.5914 0.0300101C31.7114 0 31.8313 0 31.9514 0C32.0714 0 32.1913 0 32.3113 0.0300101C32.4613 0.0600201 32.5813 0.0900302 32.7013 0.150016C32.7913 0.180026 32.8514 0.180026 32.9414 0.240011C32.9714 0.270125 33.0014 0.300032 33.0313 0.329904C33.1514 0.389924 33.2413 0.480023 33.3314 0.600029C33.4214 0.689921 33.5114 0.780055 33.6013 0.90006C33.6314 0.93007 33.6613 0.96008 33.6914 0.990056L45.0619 22.0208H61.8925C61.9225 22.0208 61.9524 22.0208 61.9824 22.0509C62.4624 22.0809 62.9124 22.2609 63.2425 22.5908C63.2726 22.6208 63.3024 22.5908 63.3325 22.6208C63.3625 22.6509 63.3325 22.6809 63.3625 22.7109C63.6626 23.0408 63.8726 23.4909 63.8726 23.971C63.8726 24.001 63.9026 24.031 63.9026 24.061C63.8424 24.631 63.6023 25.141 63.2125 25.501H63.2124ZM43.8916 26.0411C43.7716 26.0411 43.6517 25.9811 43.5317 25.9811C43.4416 25.951 43.3517 25.951 43.2617 25.9212C42.8716 25.8011 42.5416 25.5311 42.3016 25.2011C42.2716 25.1411 42.1816 25.1411 42.1517 25.0811L31.9213 6.12029L21.6909 25.0811C21.6608 25.141 21.6009 25.141 21.5408 25.2011C21.3009 25.5311 20.9709 25.8012 20.5808 25.9212C20.4909 25.9512 20.4009 25.9512 20.3108 25.9811C20.1907 26.0112 20.1007 26.0411 19.9508 26.0411H6.78027L19.3808 38.6416C19.4109 38.6716 19.3808 38.7015 19.4109 38.7015C19.7407 39.0615 19.9508 39.5115 19.9508 40.0215V40.0515C19.9508 40.2317 19.9508 40.4115 19.9208 40.5917L15.4507 57.1823L30.3612 46.5919C30.7812 46.2017 31.3811 46.0518 31.9513 46.0817C32.5213 46.0517 33.0912 46.1717 33.5412 46.5919L48.4519 57.1823L43.9817 40.5917C43.9216 40.4115 43.9517 40.2317 43.9517 40.0515V40.0215C43.9517 39.5115 44.1616 39.0615 44.4916 38.7015C44.5216 38.6714 44.4916 38.6416 44.5216 38.6416L57.1221 26.0411H43.8916Z" fill="white"/>
</g>
</svg>
