<svg width="48" height="48" viewBox="0 0 48 48" fill="none" xmlns="http://www.w3.org/2000/svg">
<path fill-rule="evenodd" clip-rule="evenodd" d="M47.4093 19.1258L36.1589 30.3987L40.3891 46.0818C40.434 46.2169 40.4116 46.3518 40.4116 46.4869C40.4116 46.5318 40.4116 46.5543 40.4116 46.5993C40.3891 46.9593 40.2316 47.2743 39.9841 47.5219C39.9616 47.5444 39.9841 47.5669 39.9615 47.5669C39.9615 47.5669 39.939 47.5669 39.939 47.5894C39.759 47.7693 39.5564 47.9044 39.2864 47.9719C39.1514 48.0168 39.0165 47.9944 38.8814 47.9944C38.4989 47.9944 38.1614 47.8595 37.8913 47.6119C37.8688 47.5894 37.8238 47.5894 37.7789 47.5669L23.941 37.734L10.1029 47.5669C10.0804 47.5895 10.0354 47.5895 9.99043 47.6119C9.72041 47.8594 9.3829 47.9719 9.00038 47.9944C8.86536 47.9944 8.73037 47.9944 8.59535 47.9719C8.32533 47.9044 8.12282 47.7468 7.94281 47.5894C7.94281 47.5894 7.9203 47.5894 7.9203 47.5669C7.89779 47.5443 7.9203 47.5219 7.89779 47.5219C7.65029 47.2744 7.51527 46.9593 7.4702 46.5993C7.4702 46.5543 7.4702 46.5318 7.4702 46.4869C7.4702 46.3518 7.44769 46.2169 7.49279 46.0818L11.7229 30.3987L0.472529 19.1258C0.180009 18.8558 0 18.4732 0 18.0457C0 18.0232 0.0225075 18.0007 0.0225075 17.9782C0.0450927 17.6182 0.180086 17.2807 0.40511 17.0332C0.427617 17.0107 0.40511 16.9882 0.427617 16.9656C0.450125 16.9431 0.472529 16.9656 0.495114 16.9431C0.742542 16.7182 1.08016 16.5606 1.44017 16.5382C1.46268 16.5382 1.48519 16.5156 1.50767 16.5156H14.1306L22.6585 0.742542C22.681 0.720034 22.7035 0.697527 22.726 0.675045C22.771 0.585041 22.8609 0.517467 22.9285 0.450022C22.996 0.382525 23.0635 0.315002 23.1535 0.247428C23.176 0.224998 23.1984 0.202594 23.2209 0.180009C23.266 0.157501 23.3335 0.157501 23.4009 0.112512C23.4909 0.0674968 23.5809 0.0450151 23.6935 0.0225075C23.7835 0 23.8735 0 23.9636 0C24.0536 0 24.1435 0 24.2335 0.0225075C24.346 0.0450151 24.436 0.0675226 24.526 0.112512C24.5935 0.135019 24.6385 0.135019 24.706 0.180009C24.7285 0.202594 24.751 0.225024 24.7735 0.247428C24.8635 0.292443 24.931 0.360017 24.9985 0.450022C25.066 0.517441 25.1336 0.585041 25.201 0.675045C25.2236 0.697553 25.246 0.72006 25.2685 0.742542L33.7964 16.5156H46.4194C46.4419 16.5156 46.4643 16.5156 46.4868 16.5382C46.8468 16.5607 47.1843 16.6957 47.4319 16.9431C47.4544 16.9656 47.4768 16.9431 47.4994 16.9656C47.5219 16.9882 47.4994 17.0107 47.5219 17.0332C47.7469 17.2806 47.9044 17.6182 47.9044 17.9782C47.9044 18.0007 47.9269 18.0232 47.9269 18.0457C47.8818 18.4732 47.7018 18.8558 47.4093 19.1258H47.4093ZM32.9187 19.5308C32.8287 19.5308 32.7388 19.4858 32.6488 19.4858C32.5812 19.4633 32.5138 19.4633 32.4463 19.4409C32.1537 19.3508 31.9062 19.1484 31.7262 18.9009C31.7037 18.8558 31.6362 18.8558 31.6138 18.8108L23.941 4.59022L16.2682 18.8108C16.2456 18.8558 16.2007 18.8558 16.1556 18.9009C15.9757 19.1484 15.7282 19.3509 15.4356 19.4409C15.3682 19.4634 15.3007 19.4634 15.2331 19.4858C15.1431 19.5084 15.0756 19.5308 14.9631 19.5308H5.0852L14.5356 28.9812C14.5582 29.0037 14.5356 29.0261 14.5582 29.0261C14.8055 29.2961 14.9631 29.6336 14.9631 30.0161V30.0386C14.9631 30.1737 14.9631 30.3087 14.9406 30.4438L11.588 42.8867L22.7709 34.9439C23.0859 34.6513 23.5358 34.5389 23.9634 34.5613C24.391 34.5388 24.8184 34.6288 25.1559 34.9439L36.3389 42.8867L32.9863 30.4438C32.9412 30.3087 32.9638 30.1737 32.9638 30.0386V30.0161C32.9638 29.6336 33.1212 29.2961 33.3687 29.0261C33.3912 29.0036 33.3687 28.9812 33.3912 28.9812L42.8416 19.5308H32.9187Z" fill="#240B14"/>
</svg>
