<svg width="49" height="48" viewBox="0 0 49 48" fill="none" xmlns="http://www.w3.org/2000/svg">
<path fill-rule="evenodd" clip-rule="evenodd" d="M24.012 48C10.7572 48 0 37.2426 0 23.9879C0 10.7334 10.7572 0 24.012 0C37.2666 0 48.024 10.7573 48.024 23.9879C48.024 37.2666 37.2667 48 24.012 48ZM25.6209 3.36167V14.4072C25.6209 15.2956 24.9005 16.0161 24.012 16.0161C23.1238 16.0161 22.4034 15.2957 22.4034 14.4072V3.36167C12.2222 4.154 4.15422 12.2221 3.36175 22.4032H14.4073C15.2958 22.4032 16.0162 23.1236 16.0162 24.012C16.0162 24.9005 15.2958 25.6208 14.4073 25.6208H3.36175C4.15425 35.8019 12.2222 43.8701 22.4034 44.6624V33.6168C22.4034 32.7284 23.1238 32.008 24.012 32.008C24.9006 32.008 25.6209 32.7283 25.6209 33.6168V44.6624C35.8018 43.87 43.87 35.8019 44.6623 25.6208H33.6169C32.7284 25.6208 32.0082 24.9006 32.0082 24.012C32.0082 23.1235 32.7284 22.4032 33.6169 22.4032H44.6623C43.8699 12.2221 35.8018 4.15405 25.6209 3.36167Z" fill="#240B14"/>
</svg>
