<svg width="65" height="64" viewBox="0 0 65 64" fill="none" xmlns="http://www.w3.org/2000/svg">
<g opacity="0.1">
<path fill-rule="evenodd" clip-rule="evenodd" d="M32.016 64C14.3429 64 0 49.6568 0 31.9839C0 14.3111 14.3429 0 32.016 0C49.6889 0 64.032 14.3431 64.032 31.9839C64.032 49.6889 49.6889 64 32.016 64ZM34.1612 4.48222V19.2096C34.1612 20.3942 33.2007 21.3548 32.016 21.3548C30.8317 21.3548 29.8713 20.3942 29.8713 19.2096V4.48222C16.2963 5.53867 5.53896 16.2961 4.48234 29.8709H19.2097C20.3944 29.8709 21.3549 30.8314 21.3549 32.016C21.3549 33.2006 20.3944 34.1611 19.2097 34.1611H4.48234C5.539 47.7358 16.2963 58.4934 29.8713 59.5498V44.8224C29.8713 43.6379 30.8318 42.6774 32.016 42.6774C33.2007 42.6774 34.1612 43.6377 34.1612 44.8224V59.5498C47.7357 58.4934 58.4933 47.7358 59.5497 34.1611H44.8226C43.6379 34.1611 42.6776 33.2007 42.6776 32.016C42.6776 30.8314 43.6379 29.8709 44.8226 29.8709H59.5497C58.4933 16.2961 47.7357 5.53874 34.1612 4.48222Z" fill="white"/>
</g>
</svg>
