<svg width="25" height="20" viewBox="0 0 25 20" fill="none" xmlns="http://www.w3.org/2000/svg">
<path d="M16.1834 8.904C15.2501 9.31467 14.5221 9.93067 13.9994 10.752C13.4768 11.5733 13.2154 12.544 13.2154 13.664C13.2154 15.2693 13.7194 16.576 14.7274 17.584C15.7354 18.5547 17.0234 19.04 18.5914 19.04C20.1594 19.04 21.4661 18.536 22.5114 17.528C23.5194 16.52 24.0234 15.232 24.0234 13.664C24.0234 12.9173 23.9301 12.1707 23.7434 11.424C23.5568 10.6773 23.1461 9.55733 22.5114 8.064L19.2634 0H13.7194L16.1834 8.904ZM2.96744 8.904C2.0341 9.31467 1.3061 9.93067 0.783436 10.752C0.260769 11.5733 -0.000564575 12.544 -0.000564575 13.664C-0.000564575 15.2693 0.503437 16.576 1.51144 17.584C2.51944 18.5547 3.80744 19.04 5.37544 19.04C6.94344 19.04 8.2501 18.536 9.29544 17.528C10.3034 16.52 10.8074 15.232 10.8074 13.664C10.8074 12.9173 10.7141 12.1707 10.5274 11.424C10.3408 10.6773 9.9301 9.55733 9.29544 8.064L6.04744 0H0.503435L2.96744 8.904Z" fill="white"/>
</svg>
