<svg width="25" height="20" viewBox="0 0 25 20" fill="none" xmlns="http://www.w3.org/2000/svg">
<path d="M7.84 8.904C8.77333 9.31467 9.50133 9.93067 10.024 10.752C10.5467 11.5733 10.808 12.544 10.808 13.664C10.808 15.2693 10.304 16.576 9.296 17.584C8.288 18.5547 7 19.04 5.432 19.04C3.864 19.04 2.55733 18.536 1.512 17.528C0.504 16.52 0 15.232 0 13.664C0 12.9173 0.0933333 12.1707 0.28 11.424C0.466667 10.6773 0.877334 9.55733 1.512 8.064L4.76 0H10.304L7.84 8.904ZM21.056 8.904C21.9893 9.31467 22.7173 9.93067 23.24 10.752C23.7627 11.5733 24.024 12.544 24.024 13.664C24.024 15.2693 23.52 16.576 22.512 17.584C21.504 18.5547 20.216 19.04 18.648 19.04C17.08 19.04 15.7733 18.536 14.728 17.528C13.72 16.52 13.216 15.232 13.216 13.664C13.216 12.9173 13.3093 12.1707 13.496 11.424C13.6827 10.6773 14.0933 9.55733 14.728 8.064L17.976 0H23.52L21.056 8.904Z" fill="#240B14"/>
</svg>
