<svg width="30" height="30" viewBox="0 0 30 30" fill="none" xmlns="http://www.w3.org/2000/svg">
<path fill-rule="evenodd" clip-rule="evenodd" d="M27.8455 29.9998H19.2761C18.0867 29.9998 17.1384 29.0352 17.1384 27.8615V19.2924C17.1384 18.1027 18.1028 17.1542 19.2761 17.1542H27.8455C29.0354 17.1542 29.9838 18.1188 29.9838 19.2924V27.8615C29.9998 29.0352 29.0354 29.9998 27.8455 29.9998ZM27.8458 20.3528C27.8458 19.758 27.3631 19.2757 26.7688 19.2757H20.3376C19.7428 19.2757 19.2603 19.758 19.2603 20.3528V26.7837C19.2603 27.3786 19.7428 27.8609 20.3376 27.8609H26.7688C27.3631 27.8609 27.8458 27.3786 27.8458 26.7837V20.3528ZM27.8455 12.8457H19.2761C18.0867 12.8457 17.1384 11.881 17.1384 10.7074V2.13825C17.1384 0.948522 18.1028 0 19.2761 0H27.8455C29.0354 0 29.9838 0.964641 29.9838 2.13825V10.7074C29.9998 11.8971 29.0354 12.8457 27.8455 12.8457ZM27.8458 3.21631C27.8458 2.62145 27.3631 2.13914 26.7688 2.13914H20.3376C19.7428 2.13914 19.2603 2.62146 19.2603 3.21631V9.64718C19.2603 10.242 19.7428 10.7244 20.3376 10.7244H26.7688C27.3631 10.7244 27.8458 10.242 27.8458 9.64718V3.21631ZM10.7076 29.9998H2.13824C0.948392 29.9998 0 29.0352 0 27.8615V19.2924C0 18.1027 0.964862 17.1542 2.13824 17.1542H10.7076C11.8968 17.1542 12.8459 18.1188 12.8459 19.2924V27.8615C12.8617 29.0352 11.8968 29.9998 10.7076 29.9998ZM10.7074 20.3528C10.7074 19.758 10.2247 19.2757 9.62971 19.2757H3.199C2.60419 19.2757 2.12199 19.758 2.12199 20.3528V26.7837C2.12199 27.3786 2.60419 27.8609 3.199 27.8609H9.62971C10.2247 27.8609 10.7074 27.3786 10.7074 26.7837V20.3528ZM10.7076 12.8457H2.13824C0.948392 12.8457 0 11.881 0 10.7074V2.13825C0 0.948522 0.964862 0 2.13824 0H10.7076C11.8968 0 12.8459 0.964641 12.8459 2.13825V10.7074C12.8617 11.8971 11.8968 12.8457 10.7076 12.8457ZM10.7074 3.21631C10.7074 2.62145 10.2247 2.13914 9.62971 2.13914H3.199C2.60419 2.13914 2.12199 2.62146 2.12199 3.21631V9.64718C2.12199 10.242 2.60419 10.7244 3.199 10.7244H9.62971C10.2247 10.7244 10.7074 10.242 10.7074 9.64718V3.21631Z" fill="#240B14"/>
</svg>
