<svg width="24" height="24" viewBox="0 0 24 24" fill="none" xmlns="http://www.w3.org/2000/svg">
<path fill-rule="evenodd" clip-rule="evenodd" d="M22.2764 24H15.4209C14.4693 24 13.7106 23.2283 13.7106 22.2894V15.434C13.7106 14.4823 14.4822 13.7234 15.4209 13.7234H22.2764C23.2283 13.7234 23.987 14.4951 23.987 15.434V22.2894C23.9998 23.2283 23.2283 24 22.2764 24ZM22.2767 16.2823C22.2767 15.8065 21.8905 15.4206 21.4151 15.4206H16.2701C15.7942 15.4206 15.4083 15.8065 15.4083 16.2823V21.4271C15.4083 21.9029 15.7942 22.2888 16.2701 22.2888H21.4151C21.8905 22.2888 22.2767 21.9029 22.2767 21.4271V16.2823ZM22.2764 10.2766H15.4209C14.4693 10.2766 13.7106 9.50487 13.7106 8.56598V1.71061C13.7106 0.758821 14.4822 0 15.4209 0H22.2764C23.2283 0 23.987 0.771717 23.987 1.71061V8.56598C23.9998 9.51774 23.2283 10.2766 22.2764 10.2766ZM22.2767 2.57308C22.2767 2.09719 21.8905 1.71134 21.4151 1.71134H16.2701C15.7942 1.71134 15.4083 2.0972 15.4083 2.57308V7.7178C15.4083 8.1937 15.7942 8.57955 16.2701 8.57955H21.4151C21.8905 8.57955 22.2767 8.19368 22.2767 7.7178V2.57308ZM8.56615 24H1.7106C0.758718 24 0 23.2283 0 22.2894V15.434C0 14.4823 0.771894 13.7234 1.7106 13.7234H8.56615C9.51749 13.7234 10.2768 14.4951 10.2768 15.434V22.2894C10.2894 23.2283 9.51749 24 8.56615 24ZM8.56604 16.2823C8.56604 15.8065 8.17991 15.4206 7.70388 15.4206H2.55928C2.08343 15.4206 1.69767 15.8065 1.69767 16.2823V21.4271C1.69767 21.9029 2.08343 22.2888 2.55928 22.2888H7.70388C8.17991 22.2888 8.56604 21.9029 8.56604 21.4271V16.2823ZM8.56615 10.2766H1.7106C0.758718 10.2766 0 9.50487 0 8.56598V1.71061C0 0.758821 0.771894 0 1.7106 0H8.56615C9.51749 0 10.2768 0.771717 10.2768 1.71061V8.56598C10.2894 9.51774 9.51749 10.2766 8.56615 10.2766ZM8.56604 2.57308C8.56604 2.09719 8.17991 1.71134 7.70388 1.71134H2.55928C2.08343 1.71134 1.69767 2.0972 1.69767 2.57308V7.7178C1.69767 8.1937 2.08343 8.57955 2.55928 8.57955H7.70388C8.17991 8.57955 8.56604 8.19368 8.56604 7.7178V2.57308Z" fill="white"/>
</svg>
