<svg width="25" height="24" viewBox="0 0 25 24" fill="none" xmlns="http://www.w3.org/2000/svg">
<path fill-rule="evenodd" clip-rule="evenodd" d="M20.8065 24H3.20569C1.44075 24 0 22.5713 0 20.7944V3.20559C0 1.44071 1.4286 0 3.20569 0H20.8065C22.5714 0 24.0121 1.42871 24.0121 3.20559V20.8064C24 22.5713 22.5714 24 20.8065 24V24ZM22.4041 3.20499C22.4041 2.31656 21.6837 1.6082 20.8073 1.6082H3.20638C2.31801 1.6082 1.60977 2.32856 1.60977 3.20499V20.8058C1.60977 21.6942 2.32997 22.4026 3.20638 22.4026H20.8073C21.6957 22.4026 22.4041 21.6822 22.4041 20.8058V3.20499ZM11.4536 17.2642C11.4295 17.3002 11.4056 17.3482 11.3815 17.3843C11.2254 17.5403 11.0212 17.6124 10.8053 17.6124C10.6011 17.6124 10.397 17.5403 10.229 17.3843C10.193 17.3482 10.1808 17.3122 10.1567 17.2642L5.06631 12.6179C4.718 12.2937 4.718 11.7775 5.06631 11.4533C5.41445 11.1291 5.97861 11.1291 6.32708 11.4533L10.8053 15.7034L17.7568 6.65091C18.0929 6.33876 18.6212 6.33876 18.9572 6.65091C19.2936 6.96306 19.2936 7.47932 18.9572 7.80349L11.4536 17.2642Z" fill="white"/>
</svg>
