<svg width="30" height="30" viewBox="0 0 30 30" fill="none" xmlns="http://www.w3.org/2000/svg">
<path fill-rule="evenodd" clip-rule="evenodd" d="M14.9999 30C6.71195 30 0 23.2881 0 15C0 6.712 6.71205 0 14.9999 0C23.288 0 29.9999 6.712 29.9999 15C30 23.2881 23.288 30 14.9999 30ZM14.9999 1.87225C7.75323 1.87225 1.87146 7.75403 1.87146 15.0007C1.87146 22.2475 7.75324 28.1292 14.9999 28.1292C22.2467 28.1292 28.1285 22.2474 28.1285 15.0007C28.1285 7.75402 22.2467 1.87225 14.9999 1.87225ZM15 24.3708C9.8218 24.3708 5.62859 20.1775 5.62859 14.9993C5.62859 9.82111 9.8218 5.6278 15 5.6278C20.1783 5.6278 24.3715 9.82111 24.3715 14.9993C24.3856 20.1775 20.1784 24.3708 15 24.3708ZM15 7.50005C10.8631 7.50005 7.50005 10.8631 7.50005 15.0001C7.50005 19.137 10.8631 22.5001 15 22.5001C19.137 22.5001 22.5001 19.137 22.5001 15.0001C22.5001 10.8491 19.1511 7.50005 15 7.50005ZM14.9999 18.7428C12.9315 18.7428 11.243 17.0683 11.243 14.9857C11.243 12.9173 12.9174 11.2287 14.9999 11.2287C17.0684 11.2287 18.7569 12.9032 18.7569 14.9857C18.757 17.0683 17.0685 18.7428 14.9999 18.7428ZM14.9994 13.1279C13.9582 13.1279 13.1279 13.9721 13.1279 14.9993C13.1279 16.0406 13.9721 16.8708 14.9994 16.8708C16.0407 16.8708 16.871 16.0265 16.871 14.9993C16.871 13.9581 16.0408 13.1279 14.9994 13.1279Z" fill="#240B14"/>
</svg>
