<svg width="24" height="24" viewBox="0 0 24 24" fill="none" xmlns="http://www.w3.org/2000/svg">
<path fill-rule="evenodd" clip-rule="evenodd" d="M12 24C5.36961 24 0 18.6304 0 12C0 5.36961 5.36961 0 12 0C18.6304 0 24 5.36961 24 12C24 18.6191 18.6304 24 12 24ZM14.9945 22.0076C18.3716 20.9944 21.017 18.3603 22.0302 14.9944H17.1784C16.6493 15.895 15.8951 16.638 14.9945 17.167V22.0076ZM16.5029 11.9994C16.5029 9.5116 14.4879 7.49658 12.0001 7.49658C9.51227 7.49658 7.49727 9.5116 7.49727 11.9994C7.49727 14.4872 9.51228 16.5022 12.0001 16.5022C14.4879 16.4909 16.5029 14.4759 16.5029 11.9994ZM10.4914 22.3456C10.9867 22.4132 11.482 22.492 11.9886 22.492C12.5064 22.492 12.9905 22.4132 13.4858 22.3456V17.7865C13.0017 17.9103 12.5064 18.0004 11.9886 18.0004C11.4708 18.0004 10.9755 17.9103 10.4914 17.7865V22.3456H10.4914ZM8.99425 22.0076V17.167C8.09369 16.638 7.33946 15.895 6.81038 14.9944H1.95859C2.97173 18.3603 5.62838 20.9944 8.99425 22.0076ZM1.49727 11.9994C1.49727 12.506 1.55355 13.0126 1.62109 13.4966H6.2027C6.07888 13.0126 6.00008 12.5172 6.00008 11.9994C6.00008 11.4816 6.07888 10.975 6.2027 10.5022H1.62109C1.55355 10.9863 1.49727 11.4816 1.49727 11.9994ZM8.99425 1.98066C5.61714 2.9938 2.97173 5.63921 1.95859 8.9938H6.81038C7.33946 8.09324 8.09367 7.35027 8.99425 6.82119V1.98066ZM13.4971 1.6441C13.0018 1.57655 12.5065 1.49775 11.9999 1.49775C11.4821 1.49775 10.998 1.57655 10.5027 1.6441V6.2032C10.9868 6.07938 11.4821 5.98932 11.9999 5.98932C12.5177 5.98932 13.0131 6.07938 13.4971 6.2032V1.6441ZM14.9945 1.98066V6.82119C15.8951 7.35027 16.6493 8.09324 17.1784 8.9938H22.0302C21.017 5.63919 18.3716 2.99379 14.9945 1.98066ZM17.7973 10.4922C17.9211 10.9763 17.9999 11.4716 17.9999 11.9894C17.9999 12.5072 17.9211 13.0138 17.7973 13.4866H22.3789C22.4464 12.9913 22.5027 12.496 22.5027 11.9894C22.5027 11.4828 22.4464 10.9762 22.3789 10.4922H17.7973V10.4922Z" fill="white"/>
</svg>
