<svg width="30" height="30" viewBox="0 0 30 30" fill="none" xmlns="http://www.w3.org/2000/svg">
<path fill-rule="evenodd" clip-rule="evenodd" d="M15 30C6.71201 30 0 23.288 0 15C0 6.71201 6.71201 0 15 0C23.288 0 30 6.71201 30 15C30 23.2739 23.288 30 15 30ZM18.743 27.5094C22.9644 26.243 26.2711 22.9503 27.5376 18.743H21.4728C20.8115 19.8687 19.8687 20.7974 18.743 21.4588V27.5094ZM20.6285 14.9992C20.6285 11.8895 18.1098 9.37071 15 9.37071C11.8903 9.37071 9.3715 11.8895 9.3715 14.9992C9.3715 18.109 11.8903 20.6277 15 20.6277C18.1098 20.6137 20.6285 18.0949 20.6285 14.9992ZM13.1144 27.932C13.7336 28.0164 14.3527 28.1149 14.9859 28.1149C15.6332 28.1149 16.2383 28.0164 16.8574 27.932V22.2331C16.2523 22.3879 15.6332 22.5005 14.9859 22.5005C14.3386 22.5005 13.7195 22.3879 13.1144 22.2331V27.932H13.1144ZM11.2427 27.5094V21.4588C10.117 20.7974 9.17422 19.8687 8.51287 18.743H2.44814C3.71456 22.9503 7.03538 26.243 11.2427 27.5094ZM1.87146 14.9993C1.87146 15.6325 1.94182 16.2657 2.02624 16.8708H7.75325C7.59847 16.2657 7.49997 15.6466 7.49997 14.9993C7.49997 14.352 7.59847 13.7188 7.75325 13.1278H2.02624C1.94182 13.7329 1.87146 14.3521 1.87146 14.9993ZM11.2427 2.47579C7.02132 3.74221 3.71456 7.04897 2.44814 11.2422H8.51287C9.17422 10.1165 10.117 9.1878 11.2427 8.52644V2.47579ZM16.8716 2.05518C16.2524 1.97074 15.6333 1.87225 15.0001 1.87225C14.3528 1.87225 13.7478 1.97074 13.1286 2.05518V7.75406C13.7337 7.59928 14.3528 7.4867 15.0001 7.4867C15.6474 7.4867 16.2665 7.59928 16.8716 7.75406V2.05518ZM18.743 2.47579V8.52644C19.8687 9.1878 20.8115 10.1165 21.4728 11.2422H27.5376C26.2711 7.04895 22.9644 3.7422 18.743 2.47579ZM22.2465 13.1152C22.4013 13.7203 22.4998 14.3394 22.4998 14.9867C22.4998 15.634 22.4013 16.2672 22.2465 16.8582H27.9736C28.058 16.239 28.1283 15.6199 28.1283 14.9867C28.1283 14.3535 28.058 13.7203 27.9736 13.1152H22.2465V13.1152Z" fill="#240B14"/>
</svg>
