<svg width="24" height="24" viewBox="0 0 24 24" fill="none" xmlns="http://www.w3.org/2000/svg">
<path fill-rule="evenodd" clip-rule="evenodd" d="M11.9999 24C5.36956 24 0 18.6304 0 12C0 5.3696 5.36964 0 11.9999 0C18.6304 0 23.9999 5.3696 23.9999 12C24 18.6304 18.6304 24 11.9999 24ZM12 1.49775C6.20268 1.49775 1.49727 6.20318 1.49727 12.0005C1.49727 17.7979 6.20269 22.5033 12 22.5033C17.7974 22.5033 22.5029 17.7979 22.5029 12.0005C22.5029 6.20317 17.7974 1.49775 12 1.49775ZM11.9999 19.4967C7.8573 19.4967 4.50273 16.142 4.50273 11.9995C4.50273 7.85689 7.8573 4.50225 11.9999 4.50225C16.1425 4.50225 19.4971 7.85689 19.4971 11.9995C19.5084 16.142 16.1426 19.4967 11.9999 19.4967ZM12 6C8.69042 6 6 8.69046 6 12C6 15.3096 8.69042 18 12 18C15.3096 18 18 15.3095 18 12C18 8.67921 15.3209 6 12 6ZM12.0001 14.9943C10.3454 14.9943 8.99453 13.6547 8.99453 11.9886C8.99453 10.3339 10.3341 8.98301 12.0001 8.98301C13.6548 8.98301 15.0057 10.3226 15.0057 11.9886C15.0058 13.6547 13.6549 14.9943 12.0001 14.9943ZM11.9996 10.5022C11.1666 10.5022 10.5023 11.1777 10.5023 11.9994C10.5023 12.8325 11.1778 13.4966 11.9996 13.4966C12.8326 13.4966 13.4968 12.8212 13.4968 11.9994C13.4968 11.1664 12.8327 10.5022 11.9996 10.5022Z" fill="white"/>
</svg>
