<svg width="16" height="14" viewBox="0 0 16 14" fill="none" xmlns="http://www.w3.org/2000/svg">
<path fill-rule="evenodd" clip-rule="evenodd" d="M15.379 6.68798C15.4435 6.77009 15.4839 6.8604 15.4919 6.96714C15.4919 6.97536 15.5 6.98357 15.5 6.99999V7.0082V7.01641C15.5 7.02463 15.5 7.02463 15.5 7.03284C15.4919 7.16421 15.4436 7.27916 15.3629 7.36948C15.3548 7.37769 15.3629 7.3859 15.3548 7.39411C15.3468 7.40232 15.3387 7.40232 15.3306 7.40232C15.3225 7.41053 15.3145 7.41053 15.3064 7.41053L9.43547 12.846C9.23388 13.0513 8.90321 13.0513 8.69353 12.846C8.49194 12.6408 8.49194 12.3041 8.69353 12.0907L13.6048 7.54191H1.03224C0.733875 7.54191 0.5 7.29559 0.5 7C0.5 6.6962 0.741905 6.45809 1.03224 6.45809H13.6048L8.69353 1.90934C8.49194 1.70407 8.49194 1.36742 8.69353 1.15395C8.89515 0.948684 9.2258 0.948684 9.43547 1.15395L15.2742 6.55662C15.2823 6.56483 15.2903 6.57304 15.2984 6.58125C15.3145 6.59767 15.3387 6.58946 15.3548 6.60588C15.3709 6.63051 15.3629 6.66335 15.379 6.68798Z" fill="#E81132" stroke="#E81132" stroke-width="0.5"/>
</svg>
