<svg width="17" height="13" viewBox="0 0 17 13" fill="none" xmlns="http://www.w3.org/2000/svg">
<path fill-rule="evenodd" clip-rule="evenodd" d="M15.879 6.18798C15.9435 6.27009 15.9839 6.3604 15.9919 6.46714C15.9919 6.47536 16 6.48357 16 6.49999V6.5082V6.51641C16 6.52463 16 6.52463 16 6.53284C15.9919 6.66421 15.9436 6.77916 15.8629 6.86948C15.8548 6.87769 15.8629 6.8859 15.8548 6.89411C15.8468 6.90232 15.8387 6.90232 15.8306 6.90232C15.8225 6.91053 15.8145 6.91053 15.8064 6.91053L9.93547 12.346C9.73388 12.5513 9.40321 12.5513 9.19353 12.346C8.99194 12.1408 8.99194 11.8041 9.19353 11.5907L14.1048 7.04191H1.53224C1.23388 7.04191 1 6.79559 1 6.5C1 6.1962 1.24191 5.95809 1.53224 5.95809H14.1048L9.19353 1.40934C8.99194 1.20407 8.99194 0.867425 9.19353 0.653948C9.39515 0.448684 9.7258 0.448684 9.93547 0.653948L15.7742 6.05662C15.7823 6.06483 15.7903 6.07304 15.7984 6.08125C15.8145 6.09767 15.8387 6.08946 15.8548 6.10588C15.8709 6.13051 15.8629 6.16335 15.879 6.18798Z" fill="white" stroke="white" stroke-width="0.5"/>
</svg>
