<svg width="100" height="101" viewBox="0 0 100 101" fill="none" xmlns="http://www.w3.org/2000/svg">
<path d="M90 50.5C90 72.5914 72.0914 90.5 50 90.5C27.9086 90.5 10 72.5914 10 50.5C10 28.4086 27.9086 10.5 50 10.5C72.0914 10.5 90 28.4086 90 50.5Z" fill="#EE1B3A"/>
<path fill-rule="evenodd" clip-rule="evenodd" d="M100 50.5C100 78.1142 77.6142 100.5 50 100.5C22.3858 100.5 0 78.1142 0 50.5C0 22.8858 22.3858 0.5 50 0.5C77.6142 0.5 100 22.8858 100 50.5ZM50 90.5C72.0914 90.5 90 72.5914 90 50.5C90 28.4086 72.0914 10.5 50 10.5C27.9086 10.5 10 28.4086 10 50.5C10 72.5914 27.9086 90.5 50 90.5Z" fill="white"/>
<path d="M70.5 50L37.5 69V31L70.5 50Z" fill="white"/>
</svg>
